<?xml version="1.0" encoding="UTF-8" standalone="no"?>
<svg
   viewBox="0 0 1275 900"
   version="1.1"
   id="svg4"
   xmlns="http://www.w3.org/2000/svg"
   xmlns:svg="http://www.w3.org/2000/svg">
  <defs
     id="defs4" />
  <path
     d="m 0,570 c 150,-50 300,50 450,-20 150,-70 300,50 450,-20 150,-70 300,40 375,-10"
     fill="none"
     stroke="#6e79ac"
     stroke-width="50"
     stroke-linecap="round"
     id="path1" />
  <path
     d="m 0,640 c 150,-40 300,40 450,-20 150,-60 300,40 450,-20 150,-60 300,30 375,-10"
     fill="none"
     stroke="#be89b3"
     stroke-width="40"
     stroke-linecap="round"
     id="path2" />
  <path
     d="m 0,712 c 150,-40 300,30 450,-20 150,-50 300,30 450,-20 150,-50 300,30 375,-10"
     fill="none"
     stroke="#76538e"
     stroke-width="35"
     stroke-linecap="round"
     id="path3" />
</svg>
