<?xml version="1.0" encoding="UTF-8" standalone="no"?>
<svg
   viewBox="0 0 1275 900"
   version="1.1"
   id="church"
   xml:space="preserve"
   xmlns="http://www.w3.org/2000/svg"
   xmlns:svg="http://www.w3.org/2000/svg"><defs
     id="defs-church" /><path
     d="M -20,902 V 834.29546 C 320,766.59093 940,760.43597 1295,821.98555 V 902 Z"
     fill="#be89b3"
     id="path1"
     style="fill:#6e79ac;fill-opacity:1;stroke-width:1.75427" /><g
     transform="matrix(0.62190755,0,0,0.62190755,1090.1464,845.91035)"
     id="g6"><rect
       x="-160"
       y="-200"
       width="320"
       height="173.38943"
       fill="#76538e"
       id="rect1"
       style="stroke-width:0.9311" /><polygon
       points="-180,-196 0,-300 180,-196 "
       fill="#6e79ac"
       id="polygon1" /><rect
       x="-48"
       y="-347.34158"
       width="96"
       height="157.34158"
       fill="#76538e"
       id="rect2"
       style="stroke-width:0.910007" /><polygon
       points="0,-492 64,-376 -64,-376 "
       fill="#6e79ac"
       id="polygon2"
       transform="translate(0,29.620625)" /><path
       d="m -22,-253.48861 v -22 a 22,22 0 0 1 44,0 v 22 z"
       fill="#be89b3"
       id="path3" /><path
       d="m -28,-26.610565 v -56.553818 a 28,20.835617 0 0 1 56,0 v 56.553818 z"
       fill="#be89b3"
       id="path4"
       style="stroke-width:0.862629" /><path
       d="m -126,-106.90842 v -31.3136 a 22,13.777983 0 0 1 44,0 v 31.3136 z"
       fill="#be89b3"
       id="path5"
       style="stroke-width:0.791373" /><path
       d="m 82,-106.90842 v -31.3136 a 22,13.777983 0 0 1 44,0 v 31.3136 z"
       fill="#be89b3"
       id="path6"
       style="stroke-width:0.791373" /><path
       fill="currentColor"
       d="m -4.2666052,-532.35954 h 8.775329 v 21.93833 H 26.447063 v 8.77533 H 4.5087238 v 47.39194 h -8.775329 v -47.39194 H -26.204938 v -8.77533 h 21.9383328 z"
       id="path2"
       style="fill:#be89b3;fill-opacity:1;stroke-width:4.38768" /></g></svg>
